<svg width="155" height="105" viewBox="0 0 155 105" fill="none" xmlns="http://www.w3.org/2000/svg">
<path d="M0.25 0.0909081H12.0455L20.1591 19.8636H20.5682L28.6818 0.0909081H40.4773V35H31.2045V14.8182H30.9318L23.1591 34.7273H17.5682L9.79545 14.6818H9.52273V35H0.25V0.0909081ZM46.4087 35V0.0909081H71.5678V7.72727H55.886V13.7273H70.2724V21.3636H55.886V27.3636H71.4997V35H46.4087ZM91.1399 35H77.7081V0.0909081H91.0036C94.5945 0.0909081 97.6968 0.789772 100.31 2.1875C102.935 3.57386 104.958 5.57386 106.379 8.1875C107.81 10.7898 108.526 13.9091 108.526 17.5455C108.526 21.1818 107.816 24.3068 106.396 26.9205C104.975 29.5227 102.964 31.5227 100.362 32.9205C97.7593 34.3068 94.6854 35 91.1399 35ZM87.1854 26.9545H90.799C92.5263 26.9545 93.9979 26.6761 95.2138 26.1193C96.4411 25.5625 97.3729 24.6023 98.0093 23.2386C98.657 21.875 98.9809 19.9773 98.9809 17.5455C98.9809 15.1136 98.6513 13.2159 97.9922 11.8523C97.3445 10.4886 96.3899 9.52841 95.1286 8.97159C93.8786 8.41477 92.3445 8.13636 90.5263 8.13636H87.1854V26.9545ZM30.4545 57.0909V92H22.5455L9.93182 73.6591H9.72727V92H0.25V57.0909H8.29545L20.7045 75.3636H20.9773V57.0909H30.4545ZM49.1275 92.4773C46.2866 92.4773 43.8548 91.9148 41.832 90.7898C39.8093 89.6534 38.2582 88.0739 37.1786 86.0511C36.0991 84.017 35.5593 81.6591 35.5593 78.9773C35.5593 76.2955 36.0991 73.9432 37.1786 71.9205C38.2582 69.8864 39.8093 68.3068 41.832 67.1818C43.8548 66.0455 46.2866 65.4773 49.1275 65.4773C51.9684 65.4773 54.4002 66.0455 56.423 67.1818C58.4457 68.3068 59.9968 69.8864 61.0764 71.9205C62.1559 73.9432 62.6957 76.2955 62.6957 78.9773C62.6957 81.6591 62.1559 84.017 61.0764 86.0511C59.9968 88.0739 58.4457 89.6534 56.423 90.7898C54.4002 91.9148 51.9684 92.4773 49.1275 92.4773ZM49.1957 85.5227C49.9911 85.5227 50.6786 85.2557 51.2582 84.7216C51.8377 84.1875 52.2866 83.4261 52.6048 82.4375C52.923 81.4489 53.082 80.2727 53.082 78.9091C53.082 77.5341 52.923 76.358 52.6048 75.3807C52.2866 74.392 51.8377 73.6307 51.2582 73.0966C50.6786 72.5625 49.9911 72.2955 49.1957 72.2955C48.3548 72.2955 47.6332 72.5625 47.0309 73.0966C46.4286 73.6307 45.9684 74.392 45.6502 75.3807C45.332 76.358 45.173 77.5341 45.173 78.9091C45.173 80.2727 45.332 81.4489 45.6502 82.4375C45.9684 83.4261 46.4286 84.1875 47.0309 84.7216C47.6332 85.2557 48.3548 85.5227 49.1957 85.5227ZM83.5675 65.8182V72.6364H66.3175V65.8182H83.5675ZM69.6584 59.5455H79.0675V83.5795C79.0675 83.9432 79.13 84.25 79.255 84.5C79.38 84.7386 79.5732 84.9205 79.8345 85.0455C80.0959 85.1591 80.4311 85.2159 80.8402 85.2159C81.1243 85.2159 81.4539 85.1818 81.8289 85.1136C82.2152 85.0455 82.4993 84.9886 82.6811 84.9432L84.0448 91.5568C83.6243 91.6818 83.022 91.8352 82.238 92.017C81.4652 92.1989 80.5448 92.3182 79.4766 92.375C77.3175 92.4886 75.505 92.267 74.0391 91.7102C72.5732 91.142 71.4709 90.25 70.7323 89.0341C69.9936 87.8182 69.6357 86.2955 69.6584 84.4659V59.5455ZM88.847 92V65.8182H98.2561V92H88.847ZM93.5515 63.0909C92.2788 63.0909 91.1879 62.6705 90.2788 61.8295C89.3697 60.9886 88.9152 59.9773 88.9152 58.7955C88.9152 57.6136 89.3697 56.6023 90.2788 55.7614C91.1879 54.9205 92.2788 54.5 93.5515 54.5C94.8356 54.5 95.9265 54.9205 96.8243 55.7614C97.7334 56.6023 98.1879 57.6136 98.1879 58.7955C98.1879 59.9773 97.7334 60.9886 96.8243 61.8295C95.9265 62.6705 94.8356 63.0909 93.5515 63.0909ZM120.172 65.8182V72.6364H102.649V65.8182H120.172ZM105.99 92V65.0682C105.99 62.9091 106.376 61.1193 107.149 59.6989C107.922 58.2784 109.013 57.2159 110.422 56.5114C111.831 55.8068 113.49 55.4545 115.399 55.4545C116.592 55.4545 117.751 55.5455 118.876 55.7273C120.013 55.9091 120.854 56.0682 121.399 56.2045L120.036 62.9545C119.695 62.8523 119.297 62.7727 118.842 62.7159C118.388 62.6477 117.99 62.6136 117.649 62.6136C116.763 62.6136 116.166 62.8011 115.859 63.1761C115.553 63.5511 115.399 64.0455 115.399 64.6591V92H105.99ZM154.536 65.072L137.448 104.816H127.224L133.656 90.848L122.616 65.072H133.08L138.744 80.336L144.216 65.072H154.536Z" fill="#0CC0DF"/>
</svg>
