<svg width="148" height="139" viewBox="0 0 148 139" fill="none" xmlns="http://www.w3.org/2000/svg">
<path d="M31.875 139V107.125H0V85.875H31.875V54H53.125V85.875H85V107.125H53.125V139H31.875Z" fill="#0CC0DF"/>
<path d="M76 72V45H49V27H76V0H94V27H121V45H94V72H76Z" fill="#0CC0DF"/>
<path d="M121.125 110V93.875H105V83.125H121.125V67H131.875V83.125H148V93.875H131.875V110H121.125Z" fill="#0CC0DF"/>
<path d="M100.25 139V127.75H89V120.25H100.25V109H107.75V120.25H119V127.75H107.75V139H100.25Z" fill="#0CC0DF"/>
<path d="M14.25 54V42.75H3V35.25H14.25V24H21.75V35.25H33V42.75H21.75V54H14.25Z" fill="#0CC0DF"/>
</svg>
